<svg width="86" height="39" viewBox="0 0 86 39" fill="none" xmlns="http://www.w3.org/2000/svg">
<path d="M2.656 31V8.6H12.352C14.3573 8.6 16.0853 8.93067 17.536 9.592C18.9867 10.232 20.1067 11.16 20.896 12.376C21.6853 13.592 22.08 15.0427 22.08 16.728C22.08 18.392 21.6853 19.832 20.896 21.048C20.1067 22.2427 18.9867 23.16 17.536 23.8C16.0853 24.44 14.3573 24.76 12.352 24.76H5.536L7.84 22.488V31H2.656ZM16.896 31L11.296 22.872H16.832L22.496 31H16.896ZM7.84 23.064L5.536 20.632H12.064C13.664 20.632 14.8587 20.2907 15.648 19.608C16.4373 18.904 16.832 17.944 16.832 16.728C16.832 15.4907 16.4373 14.5307 15.648 13.848C14.8587 13.1653 13.664 12.824 12.064 12.824H5.536L7.84 10.36V23.064ZM34.0273 31.256C32.1926 31.256 30.5606 30.872 29.1313 30.104C27.7233 29.336 26.6033 28.2907 25.7713 26.968C24.9606 25.624 24.5553 24.0987 24.5553 22.392C24.5553 20.664 24.9606 19.1387 25.7713 17.816C26.6033 16.472 27.7233 15.4267 29.1313 14.68C30.5606 13.912 32.1926 13.528 34.0273 13.528C35.8406 13.528 37.4619 13.912 38.8913 14.68C40.3206 15.4267 41.4406 16.4613 42.2513 17.784C43.0619 19.1067 43.4673 20.6427 43.4673 22.392C43.4673 24.0987 43.0619 25.624 42.2513 26.968C41.4406 28.2907 40.3206 29.336 38.8913 30.104C37.4619 30.872 35.8406 31.256 34.0273 31.256ZM34.0273 27.16C34.8593 27.16 35.6059 26.968 36.2673 26.584C36.9286 26.2 37.4513 25.656 37.8353 24.952C38.2193 24.2267 38.4113 23.3733 38.4113 22.392C38.4113 21.3893 38.2193 20.536 37.8353 19.832C37.4513 19.128 36.9286 18.584 36.2673 18.2C35.6059 17.816 34.8593 17.624 34.0273 17.624C33.1953 17.624 32.4486 17.816 31.7873 18.2C31.1259 18.584 30.5926 19.128 30.1873 19.832C29.8033 20.536 29.6113 21.3893 29.6113 22.392C29.6113 23.3733 29.8033 24.2267 30.1873 24.952C30.5926 25.656 31.1259 26.2 31.7873 26.584C32.4486 26.968 33.1953 27.16 34.0273 27.16ZM54.068 31.256C52.6387 31.256 51.3587 30.9787 50.228 30.424C49.1187 29.8693 48.2547 29.0267 47.636 27.896C47.0173 26.744 46.708 25.2827 46.708 23.512V13.784H51.7V22.776C51.7 24.2053 51.9987 25.2613 52.596 25.944C53.2147 26.6053 54.0787 26.936 55.188 26.936C55.956 26.936 56.6387 26.776 57.236 26.456C57.8333 26.1147 58.3027 25.6027 58.644 24.92C58.9853 24.216 59.156 23.3413 59.156 22.296V13.784H64.148V31H59.412V26.264L60.276 27.64C59.7 28.8347 58.8467 29.7413 57.716 30.36C56.6067 30.9573 55.3907 31.256 54.068 31.256ZM66.5968 31L74.3088 20.888L74.2128 23.64L66.8208 13.784H72.4208L77.0928 20.216L74.9808 20.28L79.8128 13.784H85.1248L77.7008 23.544V20.856L85.3808 31H79.7168L74.8208 24.152L76.9008 24.44L72.0368 31H66.5968Z" fill="white"/>
<line x1="1" y1="35" x2="53" y2="35" stroke="#0683F7" stroke-width="2"/>
</svg>
